<svg fill="currentColor" height="200px" width="200px" version="1.1" id="Layer_1" xmlns="http://www.w3.org/2000/svg" xmlns:xlink="http://www.w3.org/1999/xlink" viewBox="0 0 512 512" xml:space="preserve"><g id="SVGRepo_bgCarrier" stroke-width="0"></g><g id="SVGRepo_tracerCarrier" stroke-linecap="round" stroke-linejoin="round"></g><g id="SVGRepo_iconCarrier"> <g> <g> <g> <path d="M505.748,6.248c-8.331-8.331-21.839-8.331-30.17,0l-41.927,41.927L229.499,77.334c-4.57,0.653-8.805,2.77-12.069,6.035 L6.251,294.569c-8.331,8.331-8.33,21.838,0.001,30.169l181.013,181.013c8.331,8.331,21.838,8.331,30.169,0.001l211.2-211.179 c3.265-3.264,5.382-7.499,6.035-12.069L463.83,78.337l41.919-41.919C514.08,28.087,514.08,14.58,505.748,6.248z M393.436,269.431 L202.351,460.498L51.506,309.653l191.067-191.086l176.002-25.138L393.436,269.431z"></path> <path d="M185.748,262.248c-8.331-8.331-21.839-8.331-30.17,0c-8.331,8.331-8.331,21.839,0,30.17l64,64 c8.331,8.331,21.839,8.331,30.17,0c8.331-8.331,8.331-21.839,0-30.17L185.748,262.248z"></path> <path d="M219.579,198.248c-8.331,8.331-8.331,21.839,0,30.17l64,64c8.331,8.331,21.839,8.331,30.17,0s8.331-21.839,0-30.17 l-64-64C241.417,189.917,227.91,189.917,219.579,198.248z"></path> </g> </g> </g> </g></svg>