<svg viewBox="0 0 20 20" version="1.1" xmlns="http://www.w3.org/2000/svg" fill="currentColor"><g id="SVGRepo_bgCarrier" stroke-width="0"></g><g id="SVGRepo_tracerCarrier" stroke-linecap="round" stroke-linejoin="round"></g><g id="SVGRepo_iconCarrier"> <g id="layer1"> <path d="M 14 1 C 10.692214 1 8 3.6922138 8 7 C 8.0009187 7.6566689 8.1675322 8.2941025 8.3789062 8.9140625 L 0.14648438 17.146484 A 0.50005 0.50005 0 0 0 0 17.5 L 0 19.5 A 0.50005 0.50005 0 0 0 0.5 20 L 3.5 20 A 0.50005 0.50005 0 0 0 3.8535156 19.853516 L 4.7070312 19 L 6.5 19 A 0.50005 0.50005 0 0 0 7 18.5 L 7 17 L 8.5 17 A 0.50005 0.50005 0 0 0 9 16.5 L 9 14.707031 L 11.408203 12.298828 C 12.222493 12.696518 13.08808 12.998007 13.998047 13 A 0.50005 0.50005 0 0 0 14 13 C 17.307786 13 20 10.307786 20 7 C 20 3.6922138 17.307786 1 14 1 z M 14 2 C 16.767346 2 19 4.2326539 19 7 C 19 9.7666799 16.768376 11.998925 14.001953 12 C 13.122276 11.9981 12.258393 11.764657 11.498047 11.322266 A 0.50005 0.50005 0 0 0 10.892578 11.400391 L 8.1464844 14.146484 A 0.50005 0.50005 0 0 0 8 14.5 L 8 16 L 6.5 16 A 0.50005 0.50005 0 0 0 6 16.5 L 6 18 L 4.5 18 A 0.50005 0.50005 0 0 0 4.1464844 18.146484 L 3.2929688 19 L 1 19 L 1 17.707031 L 9.2675781 9.4394531 A 0.50005 0.50005 0 0 0 9.3769531 8.8964844 C 9.1293039 8.2948851 9.0009101 7.6505774 9 7 C 9 4.2326539 11.232654 2 14 2 z M 15 3 C 13.901353 3 13 3.9013528 13 5 C 13 6.0986472 13.901353 7 15 7 C 16.098647 7 17 6.0986472 17 5 C 17 3.9013528 16.098647 3 15 3 z M 15 4 C 15.558207 4 16 4.4417929 16 5 C 16 5.5582071 15.558207 6 15 6 C 14.441793 6 14 5.5582071 14 5 C 14 4.4417929 14.441793 4 15 4 z " style="fill:currentColor; fill-opacity:1; stroke:none; stroke-width:0px;"></path> </g> </g></svg>